<svg xmlns="http://www.w3.org/2000/svg" width="12" height="12" viewBox="0 0 12 12">
  <defs>
    <style>
      .cls-1 {
        fill: #002e39;
        fill-rule: evenodd;
        opacity: 0.6;
      }
    </style>
  </defs>
  <path id="icon--reset-1.svg" class="cls-1" d="M12,6.007a5.955,5.955,0,0,1-1.769,4.237h0A6.045,6.045,0,0,1,5.961,12h0A6.045,6.045,0,0,1,.395,8.347h0a5.9,5.9,0,0,1-.347-1.1h0V7.241L0,7.017l2.32,0,0.042,0.13a3.777,3.777,0,0,0,2.516,2.45,3.814,3.814,0,0,0,1.075.155H5.962a3.776,3.776,0,0,0,2.667-1.1A3.718,3.718,0,0,0,9.734,6h0V6h0A3.719,3.719,0,0,0,8.629,3.352a3.775,3.775,0,0,0-2.668-1.1h0a3.781,3.781,0,0,0-2.06.606,3.958,3.958,0,0,0-.333.242C3.487,3.169,3.41,3.239,3.335,3.31L5,5H0V0L1.734,1.719A6.042,6.042,0,0,1,3.193.671C3.309,0.612,3.428.556,3.547,0.5a6.046,6.046,0,0,1,2.411-.5H5.964a6.04,6.04,0,0,1,4.267,1.755A5.954,5.954,0,0,1,12,6h0v0h0Z"/>
</svg>
