<svg xmlns="http://www.w3.org/2000/svg" width="80" height="80" viewBox="0 0 80 80">
  <path fill-rule="evenodd" d="M40,80A40,40,0,1,1,80,40,40,40,0,0,1,40,80ZM40,1.979A38.021,38.021,0,1,0,78.02,40,38.02,38.02,0,0,0,40,1.979ZM22.021,32.688c0-10.309,8.05-18.666,17.979-18.666s17.98,8.357,17.98,18.666S47.989,62.039,40,70.02C32.407,62.038,22.021,43,22.021,32.688ZM49,43c0-.092-0.011-0.181-0.014-0.272a14,14,0,1,0-17.973,0C31.011,42.82,31,42.909,31,43A9,9,0,0,0,49,43Zm-9-7a7,7,0,1,1-7,7A7,7,0,0,1,40,36Zm-2.618,5.472L39.02,43.1a0.987,0.987,0,0,0,1.97-.055l3-3a0.75,0.75,0,0,0-1.061-1.061l-2.95,2.95-1.538-1.53A0.75,0.75,0,0,0,37.382,41.471ZM51.952,33a11.92,11.92,0,0,1-1.567,5h-2.9c-0.117-.174-0.245-0.339-0.373-0.5a17.865,17.865,0,0,0,.838-4.5h4Zm-3.358,7.32c-0.034-.109-0.079-0.213-0.117-0.32H48.92C48.818,40.113,48.7,40.21,48.594,40.32ZM46.95,26h3.435a11.92,11.92,0,0,1,1.566,5h-4A17.83,17.83,0,0,0,46.95,26Zm-2.984-5.3A12.026,12.026,0,0,1,48.921,24H46.095A18,18,0,0,0,43.967,20.7ZM41,34.059V33h4.947a16,16,0,0,1-.454,2.882A8.944,8.944,0,0,0,41,34.059ZM41,26h3.813a15.831,15.831,0,0,1,1.135,5H41V26Zm0-5.6A16.151,16.151,0,0,1,43.839,24H41V20.4ZM34.053,33H39v1.059a8.944,8.944,0,0,0-4.494,1.824A15.991,15.991,0,0,1,34.053,33Zm1.135-7H39v5H34.053A15.831,15.831,0,0,1,35.187,26ZM39,20.4V24H36.161A16.151,16.151,0,0,1,39,20.4ZM31.077,24a12.025,12.025,0,0,1,4.957-3.305A18.005,18.005,0,0,0,33.905,24H31.077Zm0.975,7H28.047a11.92,11.92,0,0,1,1.566-5H33.05A17.83,17.83,0,0,0,32.052,31Zm0.838,6.5c-0.128.165-.256,0.331-0.373,0.5h-2.9a11.92,11.92,0,0,1-1.567-5h4.005A17.865,17.865,0,0,0,32.89,37.5Zm-1.485,2.826c-0.106-.11-0.225-0.207-0.327-0.321h0.444C31.485,40.108,31.44,40.212,31.406,40.321Z"/>
</svg>
