<svg xmlns="http://www.w3.org/2000/svg" width="40" height="40" viewBox="0 0 40 40">
  <path fill-rule="evenodd" d="M40,20A20,20,0,1,1,20,0,20,20,0,0,1,40,20Zm-0.99,0A19.01,19.01,0,1,1,20,.99,19.011,19.011,0,0,1,39.01,20ZM27.8,13.619L21.41,20l6.366,6.366a0.99,0.99,0,0,1,0,1.4l-0.006.006a0.99,0.99,0,0,1-1.4,0L20,21.41,13.619,27.8a0.99,0.99,0,0,1-1.4,0L12.2,27.774a0.99,0.99,0,0,1,0-1.4l6.386-6.386L12.215,13.62a0.99,0.99,0,0,1,0-1.4l0.005-.005a0.99,0.99,0,0,1,1.4,0l6.368,6.368L26.374,12.2a0.99,0.99,0,0,1,1.4,0L27.8,12.219A0.99,0.99,0,0,1,27.8,13.619Z"/>
</svg>
