<svg xmlns="http://www.w3.org/2000/svg" width="12" height="12" viewBox="0 0 12 12">
  <path fill-rule="evenodd" d="M11.159,0.569a2.313,2.313,0,0,1,.815,1.318L12.01,2.131a2.21,2.21,0,0,1-.6,1.7l-1.88,2A2.73,2.73,0,0,1,6.6,6.452l0,0a2.181,2.181,0,0,1-.227,2.736l-1.881,2A2.722,2.722,0,0,1,.9,11.444,2.268,2.268,0,0,1,.006,9.83,2.2,2.2,0,0,1,.6,8.149L2.519,6.114a2.522,2.522,0,0,1,1.425-.731l0.267-.033L5.35,5.5C5.374,5.51,5.4,5.52,5.42,5.528l0,0a2.19,2.19,0,0,1,.229-2.738l1.88-2a2.641,2.641,0,0,1,1.726-.8,2.711,2.711,0,0,1,1.858.546l0.043,0.033h0ZM7.933,5.033l-0.391.415H7.612l0.064,0H7.695a1.341,1.341,0,0,0,.637-0.21,1.119,1.119,0,0,0,.109-0.08h0a1.046,1.046,0,0,0,.1-0.093h0l0.013-.013L10.418,3.07A1.094,1.094,0,0,0,10.7,2.5a1.106,1.106,0,0,0,.014-0.123,1.167,1.167,0,0,0,0-.125V2.232a1.1,1.1,0,0,0-.229-0.583A1.08,1.08,0,0,0,10.4,1.553l0,0c-0.031-.031-0.065-0.063-0.1-0.092h0l-0.007,0-0.005,0L10.277,1.44a1.291,1.291,0,0,0-.618-0.255h0C9.61,1.179,9.565,1.174,9.524,1.173s-0.09,0-.136,0H9.37a1.339,1.339,0,0,0-.637.21,1.154,1.154,0,0,0-.1.076l0,0a1.08,1.08,0,0,0-.1.093h0l-0.013.013L6.647,3.549a1.093,1.093,0,0,0-.286.574h0a0.986,0.986,0,0,0-.013.124c0,0.04,0,.083,0,0.125V4.386h0v0a0.985,0.985,0,0,0,.019.134l0.383-.406,0.011-.012,0.014-.014h0l0,0A0.8,0.8,0,0,1,7.29,3.864a0.82,0.82,0,0,1,.545.157h0L7.848,4.03l0,0,0,0h0L7.863,4.042h0a0.674,0.674,0,0,1,.236.7,0.65,0.65,0,0,1-.058.145,0.72,0.72,0,0,1-.089.128l0,0,0,0h0v0l-0.011.012h0ZM4.28,7.825h0a0.639,0.639,0,0,0,.843-0.057l0.6-.633a1.255,1.255,0,0,1,.124.447,1.24,1.24,0,0,1-.341.954L3.637,10.517a1.473,1.473,0,0,1-.979.449,1.519,1.519,0,0,1-1.025-.3l-0.017-.014a1.27,1.27,0,0,1-.491-0.9,1.236,1.236,0,0,1,.331-0.944L1.466,8.8,3.31,6.846h0l0.022-.024a1.478,1.478,0,0,1,.979-0.449,1.588,1.588,0,0,1,.5.046l-0.6.633a0.517,0.517,0,0,0,.062.772h0Z"/>
</svg>
