<svg xmlns="http://www.w3.org/2000/svg" width="17" height="14.969" viewBox="0 0 17 14.969">
  <path fill-rule="evenodd"  class="cls-1" d="M17,8.575h0A4.368,4.368,0,0,1,12.7,13V11.528a2.912,2.912,0,0,0,2.87-2.952h0V7.838h0a0.718,0.718,0,1,1,1.435,0h0V8.575ZM12.955,5.118a1.1,1.1,0,0,1-1.841-.813V3.438H4.3A2.9,2.9,0,0,0,1.434,6.367H0A4.348,4.348,0,0,1,4.3,1.974h6.811V1.107A1.1,1.1,0,0,1,12.955.294l1.753,1.6a1.1,1.1,0,0,1,0,1.625ZM1.434,6.367V7.1h0a0.725,0.725,0,0,1-.717.732A0.725,0.725,0,0,1,0,7.1H0V6.367H1.434Zm2.6,3.469a1.1,1.1,0,0,1,1.844.81v0.881H12.7V13H5.879v0.881a1.1,1.1,0,0,1-1.844.81L2.272,13.076a1.1,1.1,0,0,1,0-1.62Z"/>
</svg>
