<svg xmlns="http://www.w3.org/2000/svg" viewBox="0 0 16 16">
  <path fill-rule="evenodd" d="M15.147,0.845a2.863,2.863,0,0,1,.022,3.991l-9.94,9.94a2.667,2.667,0,0,1-1.51.754L0.51,15.99a0.6,0.6,0,0,1-.065,0A0.451,0.451,0,0,1,0,15.48L0.46,12.272a2.652,2.652,0,0,1,.754-1.51l9.94-9.941A2.814,2.814,0,0,1,15.147.845ZM3.573,14.509l-2.442.348,0.348-2.442a1.654,1.654,0,0,1,.239-0.645l2.5,2.5a1.578,1.578,0,0,1-.643.242h0ZM14.439,4.1l-0.321.321L11.565,1.87l0.321-.321A1.806,1.806,0,1,1,14.439,4.1h0Z"/>
</svg>
