<?xml version="1.0" encoding="UTF-8"?>
<svg id="Layer_1" data-name="Layer 1" xmlns="http://www.w3.org/2000/svg" version="1.1" viewBox="0 0 19 13">
  <path fill-rule="evenodd" d="M7.1.7c1.9.4,3.3,2.1,3.3,4.1s-.2,4.2,2.1,5.8H0c2.4-1.6,2.2-3.4,2.2-5.8S3.6,1.1,5.6.7c0-.4.4-.8.8-.8s.8.4.8.8h-.1ZM8,11.5c-.2.9-1.1,1.6-2,1.4-.7-.1-1.3-.7-1.4-1.4h3.4ZM13.6,10.6c-2.4-1.6-2.1-3.4-2.1-5.8s-.7-2.7-1.9-3.5c.4-.2.8-.1,1.1.2,0,0,.1.2.1.3,1.8.3,3.2,1.9,3.2,3.7s-.2,3.7,1.7,5.1h-2.1ZM8.9,11.7h2.6c-.2.8-.9,1.3-1.6,1.3s-1-.3-1.3-.7c.2-.2.3-.4.3-.6h0ZM16.6,10.6c-1.9-1.4-1.7-3-1.7-5s-.1-1.6-.4-1.9c0,0,0,0,0,0,1.5.3,2.5,1.5,2.6,3.1,0,1.5-.1,2.7,1,3.8h-1.6ZM12.5,11.9h2.7c-.2.8-1,1.3-1.8,1-.4-.1-.8-.4-1-.8v-.2h.1Z"/>
</svg>